<?xml version="1.0" encoding="UTF-8" standalone="no"?>
<svg width="12px" height="12px" viewBox="0 0 12 12" version="1.1" xmlns="http://www.w3.org/2000/svg" xmlns:xlink="http://www.w3.org/1999/xlink">
    <!-- Generator: Sketch 3.7.2 (28276) - http://www.bohemiancoding.com/sketch -->
    <title>copy link</title>
    <desc>Created with Sketch.</desc>
    <defs></defs>
    <g id="02-16-2016" stroke="none" stroke-width="1" fill="none" fill-rule="evenodd">
        <g id="UI_web_toolkit" transform="translate(-2265.000000, -532.000000)" fill="#59518B">
            <g id="icons" transform="translate(1821.000000, 218.000000)">
                <g id="copy-link" transform="translate(444.000000, 314.000000)">
                    <path d="M12,0 L2.25,0 L2.25,9.75 L12,9.75 L12,0 L12,0 Z M11.0166667,8.76666667 L3.23333333,8.76666667 L3.23333333,0.983333333 L11.0166667,0.983333333 L11.0166667,8.76666667 L11.0166667,8.76666667 Z M9.25,12 L0,12 L0,2.75 L0.983333333,2.75 L0.983333333,11.0333333 L9.26666667,11.0333333 L9.26666667,12 L9.25,12 Z M6.63333333,5.36666667 L4.73333333,5.36666667 L4.73333333,4.38333333 L6.63333333,4.38333333 L6.63333333,2.48333333 L7.61666667,2.48333333 L7.61666667,4.38333333 L9.51666667,4.38333333 L9.51666667,5.36666667 L7.61666667,5.36666667 L7.61666667,7.26666667 L6.63333333,7.26666667 L6.63333333,5.36666667 L6.63333333,5.36666667 Z" id="Shape"></path>
                </g>
            </g>
        </g>
    </g>
</svg>