<?xml version="1.0" encoding="UTF-8" standalone="no"?>
<svg width="12px" height="12px" viewBox="0 0 12 12" version="1.1" xmlns="http://www.w3.org/2000/svg" xmlns:xlink="http://www.w3.org/1999/xlink" xmlns:sketch="http://www.bohemiancoding.com/sketch/ns">
    <!-- Generator: Sketch 3.5.1 (25234) - http://www.bohemiancoding.com/sketch -->
    <title>Shape</title>
    <desc>Created with Sketch.</desc>
    <defs></defs>
    <g id="Page-1" stroke="none" stroke-width="1" fill="none" fill-rule="evenodd" sketch:type="MSPage">
        <g id="Artboard-1-Copy-15" sketch:type="MSArtboardGroup" transform="translate(-4.000000, -4.000000)" fill="#524B7A">
            <path d="M16,4 L6.25,4 L6.25,13.75 L16,13.75 L16,4 L16,4 Z M15.0166667,12.7666667 L7.23333333,12.7666667 L7.23333333,4.98333333 L15.0166667,4.98333333 L15.0166667,12.7666667 L15.0166667,12.7666667 Z M13.25,16 L4,16 L4,6.75 L4.98333333,6.75 L4.98333333,15.0333333 L13.2666667,15.0333333 L13.2666667,16 L13.25,16 Z M10.6333333,9.36666667 L8.73333333,9.36666667 L8.73333333,8.38333333 L10.6333333,8.38333333 L10.6333333,6.48333333 L11.6166667,6.48333333 L11.6166667,8.38333333 L13.5166667,8.38333333 L13.5166667,9.36666667 L11.6166667,9.36666667 L11.6166667,11.2666667 L10.6333333,11.2666667 L10.6333333,9.36666667 L10.6333333,9.36666667 Z" id="Shape" sketch:type="MSShapeGroup"></path>
        </g>
    </g>
</svg>