<?xml version="1.0" encoding="UTF-8" standalone="no"?>
<svg width="18px" height="18px" viewBox="0 0 18 18" version="1.1" xmlns="http://www.w3.org/2000/svg" xmlns:xlink="http://www.w3.org/1999/xlink">
    <!-- Generator: Sketch 3.7.2 (28276) - http://www.bohemiancoding.com/sketch -->
    <title>Dribble</title>
    <desc>Created with Sketch.</desc>
    <defs></defs>
    <g id="02-16-2016" stroke="none" stroke-width="1" fill="none" fill-rule="evenodd">
        <g id="UI_web_toolkit" transform="translate(-2163.000000, -358.000000)" fill="#EB4C89">
            <g id="icons" transform="translate(1821.000000, 218.000000)">
                <g id="Dribble" transform="translate(342.000000, 140.000000)">
                    <g id="Welcome">
                        <g id="Desktop-HD">
                            <g id="Imported-Layers">
                                <path d="M8.8395,8.99756757 C9.08,8.8992973 9.3385,8.83702703 9.587,8.72902703 C9.472,8.51837838 9.3615,8.27562162 9.261,8.08054054 C9.225,8.00902703 9.1995,7.92097297 9.1315,7.87475676 C7.531,8.32621622 5.757,8.60837838 3.686,8.60254054 C3.644,10.2288649 4.251,11.3633514 5.0515,12.2239459 C5.9755,10.8335676 7.204,9.666 8.8395,8.99756757" id="Fill-1"></path>
                                <path d="M9.928,9.61394595 C8.0845,10.260973 6.636,11.2928108 5.735,12.8563784 C6.341,13.3195135 7.1635,13.7194054 8.1245,13.8843243 C9.183,14.0657838 10.292,13.8741081 11.083,13.536 C10.845,12.2093514 10.4615,10.9483784 10.026,9.8352973 C9.998,9.76427027 10.0015,9.66502703 9.928,9.61394595" id="Fill-2"></path>
                                <path d="M6.7275,4.0787027 C5.245,4.79821622 4.2055,5.94924324 3.7845,7.70108108 C5.6275,7.68016216 7.2625,7.45783784 8.7095,7.05259459 C8.083,6.02708108 7.454,5.00594595 6.7275,4.0787027" id="Fill-3"></path>
                                <path d="M9.0005,0 C4.0285,0 0,3.92156757 0,8.75772973 C0,13.5938919 4.0285,17.514973 9.0005,17.514973 C13.5315,17.514973 17.2795,14.2555135 17.906,10.0148108 C17.9675,9.72535135 17.996,9.42713514 17.9905,9.12016216 C17.9955,8.99951351 18,8.87837838 18,8.75772973 C18,3.92156757 13.9705,0 9.0005,0 L9.0005,0 L9.0005,0 Z M13.6015,12.8719459 C13.105,13.4007568 12.515,13.8259459 11.8135,14.1694054 C11.116,14.5109189 10.32,14.7736216 9.376,14.8178919 C7.386,14.9117838 5.828,14.1674595 4.7915,13.2368108 C3.7235,12.2779459 2.917,10.9936216 2.776,9.14059459 C2.7015,8.15545946 2.9005,7.28464865 3.199,6.54664865 C3.509,5.77945946 3.877,5.20491892 4.385,4.66491892 C5.096,3.90989189 6.0625,3.25264865 7.278,2.92524324 C7.715,2.80751351 8.1695,2.73210811 8.628,2.70340541 C10.663,2.57594595 12.167,3.3732973 13.2265,4.30054054 C14.2835,5.22389189 15.1145,6.56562162 15.2265,8.41281081 C15.346,10.3558378 14.5785,11.8352432 13.6015,12.8719459 L13.6015,12.8719459 L13.6015,12.8719459 Z" id="Fill-4"></path>
                                <path d="M10.953,9.36097297 C11.3635,10.5222162 11.7415,11.7141081 11.977,13.0461081 C12.271,12.8860541 12.5325,12.6637297 12.7735,12.4287568 C13.509,11.7131351 14.052,10.7844324 14.268,9.58281081 C13.3525,9.32254054 12.0685,9.18924324 10.953,9.36097297" id="Fill-5"></path>
                                <path d="M9.766,6.75194595 C10.8795,6.31216216 11.87,5.75221622 12.5285,4.86972973 C11.654,4.15410811 10.3935,3.50708108 8.7905,3.58881081 C8.4015,3.60827027 8.1145,3.63648649 7.7665,3.7152973 C8.3645,4.56956757 9.0025,5.45594595 9.522,6.35691892 C9.5985,6.48681081 9.65,6.64151351 9.766,6.75194595" id="Fill-6"></path>
                                <path d="M10.156,7.54248649 C10.2815,7.77940541 10.4075,8.04454054 10.5145,8.28583784 C10.552,8.37389189 10.5685,8.47702703 10.6445,8.5392973 C11.88,8.40502703 13.2535,8.50524324 14.3335,8.71345946 C14.2915,7.29340541 13.8075,6.30486486 13.131,5.50264865 C12.358,6.39486486 11.334,7.04383784 10.156,7.54248649" id="Fill-7"></path>
                            </g>
                        </g>
                    </g>
                </g>
            </g>
        </g>
    </g>
</svg>