<?xml version="1.0" encoding="UTF-8" standalone="no"?>
<svg width="20px" height="20px" viewBox="0 0 20 20" version="1.1" xmlns="http://www.w3.org/2000/svg" xmlns:xlink="http://www.w3.org/1999/xlink" xmlns:sketch="http://www.bohemiancoding.com/sketch/ns">
    <!-- Generator: Sketch 3.5.1 (25234) - http://www.bohemiancoding.com/sketch -->
    <title>Artboard 1 Copy 3</title>
    <desc>Created with Sketch.</desc>
    <defs></defs>
    <g id="Page-1" stroke="none" stroke-width="1" fill="none" fill-rule="evenodd" sketch:type="MSPage">
        <g id="Artboard-1-Copy-3" sketch:type="MSArtboardGroup" fill="#EB4C89">
            <path d="M9.8395,9.99756757 C10.08,9.8992973 10.3385,9.83702703 10.587,9.72902703 C10.472,9.51837838 10.3615,9.27562162 10.261,9.08054054 C10.225,9.00902703 10.1995,8.92097297 10.1315,8.87475676 C8.531,9.32621622 6.757,9.60837838 4.686,9.60254054 C4.644,11.2288649 5.251,12.3633514 6.0515,13.2239459 C6.9755,11.8335676 8.204,10.666 9.8395,9.99756757" id="Fill-1" sketch:type="MSShapeGroup"></path>
            <path d="M10.928,10.6139459 C9.0845,11.260973 7.636,12.2928108 6.735,13.8563784 C7.341,14.3195135 8.1635,14.7194054 9.1245,14.8843243 C10.183,15.0657838 11.292,14.8741081 12.083,14.536 C11.845,13.2093514 11.4615,11.9483784 11.026,10.8352973 C10.998,10.7642703 11.0015,10.665027 10.928,10.6139459" id="Fill-2" sketch:type="MSShapeGroup"></path>
            <path d="M7.7275,5.0787027 C6.245,5.79821622 5.2055,6.94924324 4.7845,8.70108108 C6.6275,8.68016216 8.2625,8.45783784 9.7095,8.05259459 C9.083,7.02708108 8.454,6.00594595 7.7275,5.0787027" id="Fill-3" sketch:type="MSShapeGroup"></path>
            <path d="M10.0005,1 C5.0285,1 1,4.92156757 1,9.75772973 C1,14.5938919 5.0285,18.514973 10.0005,18.514973 C14.5315,18.514973 18.2795,15.2555135 18.906,11.0148108 C18.9675,10.7253514 18.996,10.4271351 18.9905,10.1201622 C18.9955,9.99951351 19,9.87837838 19,9.75772973 C19,4.92156757 14.9705,1 10.0005,1 L10.0005,1 L10.0005,1 L10.0005,1 Z M14.6015,13.8719459 C14.105,14.4007568 13.515,14.8259459 12.8135,15.1694054 C12.116,15.5109189 11.32,15.7736216 10.376,15.8178919 C8.386,15.9117838 6.828,15.1674595 5.7915,14.2368108 C4.7235,13.2779459 3.917,11.9936216 3.776,10.1405946 C3.7015,9.15545946 3.9005,8.28464865 4.199,7.54664865 C4.509,6.77945946 4.877,6.20491892 5.385,5.66491892 C6.096,4.90989189 7.0625,4.25264865 8.278,3.92524324 C8.715,3.80751351 9.1695,3.73210811 9.628,3.70340541 C11.663,3.57594595 13.167,4.3732973 14.2265,5.30054054 C15.2835,6.22389189 16.1145,7.56562162 16.2265,9.41281081 C16.346,11.3558378 15.5785,12.8352432 14.6015,13.8719459 L14.6015,13.8719459 L14.6015,13.8719459 L14.6015,13.8719459 Z" id="Fill-4" sketch:type="MSShapeGroup"></path>
            <path d="M11.953,10.360973 C12.3635,11.5222162 12.7415,12.7141081 12.977,14.0461081 C13.271,13.8860541 13.5325,13.6637297 13.7735,13.4287568 C14.509,12.7131351 15.052,11.7844324 15.268,10.5828108 C14.3525,10.3225405 13.0685,10.1892432 11.953,10.360973" id="Fill-5" sketch:type="MSShapeGroup"></path>
            <path d="M10.766,7.75194595 C11.8795,7.31216216 12.87,6.75221622 13.5285,5.86972973 C12.654,5.15410811 11.3935,4.50708108 9.7905,4.58881081 C9.4015,4.60827027 9.1145,4.63648649 8.7665,4.7152973 C9.3645,5.56956757 10.0025,6.45594595 10.522,7.35691892 C10.5985,7.48681081 10.65,7.64151351 10.766,7.75194595" id="Fill-6" sketch:type="MSShapeGroup"></path>
            <path d="M11.156,8.54248649 C11.2815,8.77940541 11.4075,9.04454054 11.5145,9.28583784 C11.552,9.37389189 11.5685,9.47702703 11.6445,9.5392973 C12.88,9.40502703 14.2535,9.50524324 15.3335,9.71345946 C15.2915,8.29340541 14.8075,7.30486486 14.131,6.50264865 C13.358,7.39486486 12.334,8.04383784 11.156,8.54248649" id="Fill-7" sketch:type="MSShapeGroup"></path>
        </g>
    </g>
</svg>