<?xml version="1.0" encoding="UTF-8" standalone="no"?>
<svg width="16px" height="11px" viewBox="0 0 16 11" version="1.1" xmlns="http://www.w3.org/2000/svg" xmlns:xlink="http://www.w3.org/1999/xlink" xmlns:sketch="http://www.bohemiancoding.com/sketch/ns">
    <!-- Generator: Sketch 3.5.1 (25234) - http://www.bohemiancoding.com/sketch -->
    <title>Group</title>
    <desc>Created with Sketch.</desc>
    <defs></defs>
    <g id="Page-1" stroke="none" stroke-width="1" fill="none" fill-rule="evenodd" sketch:type="MSPage">
        <g id="Artboard-1-Copy-13" sketch:type="MSArtboardGroup" transform="translate(-2.000000, -5.000000)" fill="#524B7A">
            <g id="Group" sketch:type="MSLayerGroup" transform="translate(2.000000, 5.000000)">
                <path d="M9.56249966,0.25 L9.56249966,1.41402364 L2.484375,1.41402361 L0.0937499978,1.41402361 L0.0937499978,0.249999938 L9.56249966,0.25 Z" id="Shape" sketch:type="MSShapeGroup"></path>
                <path d="M7.32656827,4.41005917 L7.32656805,5.57408284 L0.0937500015,5.5740829 L0.0937500015,4.41005923 L7.32656827,4.41005917 Z" id="Shape" sketch:type="MSShapeGroup"></path>
                <path d="M0.984375008,8.57011839 C1.44578686,8.57011838 2.07326125,8.57011838 2.68750001,8.57011837 C3.77994985,8.57011836 4.83053254,8.57011834 4.83053254,8.57011834 L4.83053254,9.73414201 L0.0937500015,9.73414207 L0.0937500015,8.5701184 C0.0937500015,8.5701184 0.687500006,8.57011839 0.984375008,8.57011839 Z" id="Shape" sketch:type="MSShapeGroup"></path>
                <path d="M15.9429776,8.05094334 L12.3186391,10.5 L8.69430051,8.05094334 L9.22353642,7.27822893 L11.3451666,8.73424964 L11.7366272,9.00289909 L11.7366272,8.5281213 L11.7366272,0.25 L12.9006508,0.25 L12.9006509,8.5281213 L12.9006509,9.00289909 L13.2921115,8.73424964 L15.4137417,7.27822893 L15.9429776,8.05094334 Z" id="Shape" sketch:type="MSShapeGroup"></path>
            </g>
        </g>
    </g>
</svg>