<?xml version="1.0" encoding="UTF-8" standalone="no"?>
<svg width="20px" height="20px" viewBox="0 0 20 20" version="1.1" xmlns="http://www.w3.org/2000/svg" xmlns:xlink="http://www.w3.org/1999/xlink" xmlns:sketch="http://www.bohemiancoding.com/sketch/ns">
    <!-- Generator: Sketch 3.5.1 (25234) - http://www.bohemiancoding.com/sketch -->
    <title>Artboard 1 Copy 20</title>
    <desc>Created with Sketch.</desc>
    <defs></defs>
    <g id="Page-1" stroke="none" stroke-width="1" fill="none" fill-rule="evenodd" sketch:type="MSPage">
        <g id="Artboard-1-Copy-20" sketch:type="MSArtboardGroup" fill="#000000">
            <g id="icon_github" sketch:type="MSLayerGroup">
                <g id="Layer_1" sketch:type="MSShapeGroup">
                    <path d="M10.29,0.842105263 C5.04,0.842105263 0.84,5.05263158 0.84,10.3157895 C0.84,14.5263158 3.57,18 7.35,19.2631579 C7.77,19.3684211 7.98,19.0526316 7.98,18.8421053 L7.98,17.0526316 C5.355,17.5789474 4.83,15.8947368 4.83,15.8947368 C4.41,14.8421053 3.78,14.5263158 3.78,14.5263158 C2.94,13.8947368 3.885,14 3.885,14 C4.83,14.1052632 5.355,14.9473684 5.355,14.9473684 C6.195,16.4210526 7.56,16 8.085,15.6842105 C8.19,15.0526316 8.4,14.6315789 8.715,14.4210526 C6.615,14.2105263 4.41,13.3684211 4.41,9.78947368 C4.41,8.73684211 4.83,7.89473684 5.355,7.26315789 C5.25,7.05263158 4.935,6.10526316 5.46,4.73684211 C5.46,4.73684211 6.3,4.52631579 8.085,5.68421053 C8.82,5.47368421 9.66,5.36842105 10.5,5.36842105 C11.34,5.36842105 12.075,5.47368421 12.915,5.68421053 C14.7,4.42105263 15.54,4.73684211 15.54,4.73684211 C16.065,6 15.75,7.05263158 15.645,7.26315789 C16.275,7.89473684 16.59,8.73684211 16.59,9.78947368 C16.59,13.4736842 14.385,14.2105263 12.285,14.4210526 C12.6,14.7368421 12.915,15.2631579 12.915,16.2105263 L12.915,18.8421053 C12.915,19.0526316 13.125,19.3684211 13.545,19.2631579 C17.325,18 20.055,14.4210526 20.055,10.3157895 C19.74,5.05263158 15.54,0.842105263 10.29,0.842105263 L10.29,0.842105263 Z" id="Shape"></path>
                </g>
            </g>
        </g>
    </g>
</svg>