<?xml version="1.0" encoding="UTF-8" standalone="no"?>
<svg width="20px" height="20px" viewBox="0 0 20 20" version="1.1" xmlns="http://www.w3.org/2000/svg" xmlns:xlink="http://www.w3.org/1999/xlink" xmlns:sketch="http://www.bohemiancoding.com/sketch/ns">
    <!-- Generator: Sketch 3.5.1 (25234) - http://www.bohemiancoding.com/sketch -->
    <title>Artboard 1 Copy 19</title>
    <desc>Created with Sketch.</desc>
    <defs></defs>
    <g id="Page-1" stroke="none" stroke-width="1" fill="none" fill-rule="evenodd" sketch:type="MSPage">
        <g id="Artboard-1-Copy-19" sketch:type="MSArtboardGroup" fill="#1C75BB">
            <g id="icon_linkedin" sketch:type="MSLayerGroup">
                <g id="Layer_1" sketch:type="MSShapeGroup">
                    <path d="M9.5,0.526315789 C4.22222222,0.526315789 0,4.73684211 0,10 C0,15.2631579 4.22222222,19.4736842 9.5,19.4736842 C14.7777778,19.4736842 19,15.2631579 19,10 C19,4.73684211 14.7777778,0.526315789 9.5,0.526315789 L9.5,0.526315789 Z M6.75555556,14.3157895 L4.64444444,14.3157895 L4.64444444,7.68421053 L6.75555556,7.68421053 L6.75555556,14.3157895 L6.75555556,14.3157895 L6.75555556,14.3157895 Z M5.7,6.84210526 C5.06666667,6.84210526 4.53888889,6.31578947 4.53888889,5.68421053 C4.53888889,5.05263158 5.06666667,4.52631579 5.7,4.52631579 C6.33333333,4.52631579 6.86111111,5.05263158 6.86111111,5.68421053 C6.96666667,6.31578947 6.33333333,6.84210526 5.7,6.84210526 L5.7,6.84210526 Z M14.4611111,14.3157895 L12.4555556,14.3157895 L12.4555556,11.0526316 C12.4555556,10.3157895 12.4555556,9.26315789 11.4,9.26315789 C10.3444444,9.26315789 10.1333333,10.1052632 10.1333333,10.9473684 L10.1333333,14.2105263 L8.12777778,14.2105263 L8.12777778,7.57894737 L10.1333333,7.57894737 L10.1333333,8.52631579 L10.1333333,8.52631579 C10.45,8 11.0833333,7.47368421 12.0333333,7.47368421 C14.1444444,7.47368421 14.4611111,8.84210526 14.4611111,10.6315789 L14.4611111,14.3157895 L14.4611111,14.3157895 L14.4611111,14.3157895 Z" id="Shape"></path>
                </g>
            </g>
        </g>
    </g>
</svg>