<?xml version="1.0" encoding="UTF-8" standalone="no"?>
<svg width="20px" height="20px" viewBox="0 0 20 20" version="1.1" xmlns="http://www.w3.org/2000/svg" xmlns:xlink="http://www.w3.org/1999/xlink" xmlns:sketch="http://www.bohemiancoding.com/sketch/ns">
    <!-- Generator: Sketch 3.5.1 (25234) - http://www.bohemiancoding.com/sketch -->
    <title>Artboard 1 Copy 11</title>
    <desc>Created with Sketch.</desc>
    <defs></defs>
    <g id="Page-1" stroke="none" stroke-width="1" fill="none" fill-rule="evenodd" sketch:type="MSPage">
        <g id="Artboard-1-Copy-11" sketch:type="MSArtboardGroup" fill="#000000">
            <g id="icon_location" sketch:type="MSLayerGroup" transform="translate(7.000000, 5.000000)">
                <g id="Layer_1" sketch:type="MSShapeGroup">
                    <path d="M3.5,0 C1.58148148,0 0.0207407407,1.44129464 0.0207407407,3.25825893 C0.0207407407,3.6609375 0.111481481,4.10044643 0.274814815,4.49575893 L0.272222222,4.49575893 L0.287777778,4.52522321 C0.300740741,4.55223214 0.313703704,4.57924107 0.326666667,4.60625 L3.5,11 L6.65777778,4.63816964 L6.67333333,4.60870536 C6.6862963,4.58169643 6.70185185,4.5546875 6.71481481,4.52522321 L6.72518519,4.49821429 C6.8937037,4.10290179 6.97925926,3.68549107 6.97925926,3.26316964 C6.97925926,1.44129464 5.41851852,0 3.5,0 L3.5,0 Z M3.5,4.29441964 C2.82851852,4.29441964 2.28407407,3.77879464 2.28407407,3.14285714 C2.28407407,2.50691964 2.82851852,1.99129464 3.5,1.99129464 C4.17148148,1.99129464 4.71592593,2.50691964 4.71592593,3.14285714 C4.71592593,3.77879464 4.17148148,4.29441964 3.5,4.29441964 L3.5,4.29441964 Z" id="Shape"></path>
                </g>
            </g>
        </g>
    </g>
</svg>