<?xml version="1.0" encoding="UTF-8" standalone="no"?>
<svg width="20px" height="20px" viewBox="0 0 20 20" version="1.1" xmlns="http://www.w3.org/2000/svg" xmlns:xlink="http://www.w3.org/1999/xlink" xmlns:sketch="http://www.bohemiancoding.com/sketch/ns">
    <!-- Generator: Sketch 3.5.1 (25234) - http://www.bohemiancoding.com/sketch -->
    <title>Artboard 1 Copy 12</title>
    <desc>Created with Sketch.</desc>
    <defs></defs>
    <g id="Page-1" stroke="none" stroke-width="1" fill="none" fill-rule="evenodd" sketch:type="MSPage">
        <g id="Artboard-1-Copy-12" sketch:type="MSArtboardGroup" fill="#000000">
            <path d="M10,11.9 L10,12.9 C10,13 9.9,13.1 9.8,13.1 C9.7,13.1 9.6,13 9.6,12.9 L9.6,11.9 C9.3,11.8 9.1,11.5 9.1,11.2 C9.1,10.8 9.4,10.5 9.8,10.5 C10.2,10.5 10.5,10.8 10.5,11.2 C10.5,11.5 10.3,11.8 10,11.9 L10,11.9 Z M8.2,7.6 C8.2,6.8 8.9,6.1 9.7,6.1 L9.8,6.1 C10.6,6.1 11.3,6.8 11.3,7.6 L11.3,9 L8.199,9 L8.199,7.6 L8.2,7.6 Z M12.5,9 L12.5,9 L12.5,7.7 C12.5,6.2 11.3,5 9.8,5 L9.7,5 C8.2,5 7,6.2 7,7.7 L7,9 C6.5,9 6,9.4 6,10 L6,13.7 C6,14.3 6.5,14.7 7,14.7 L12.5,14.7 C13,14.7 13.5,14.3 13.5,13.7 L13.5,10 C13.5,9.4 13.1,9 12.5,9 L12.5,9 Z" id="Page-1" sketch:type="MSShapeGroup"></path>
        </g>
    </g>
</svg>