<?xml version="1.0" standalone="no"?><!DOCTYPE svg PUBLIC "-//W3C//DTD SVG 1.1//EN" "http://www.w3.org/Graphics/SVG/1.1/DTD/svg11.dtd"><svg width="100%" height="100%" viewBox="0 0 20 20" version="1.1" xmlns="http://www.w3.org/2000/svg" xmlns:xlink="http://www.w3.org/1999/xlink" xml:space="preserve" style="fill-rule:evenodd;clip-rule:evenodd;stroke-linejoin:round;stroke-miterlimit:1.41421;"><g id="locked-2"><path d="M9.984,0c0.46,0.009 0.918,0.044 1.373,0.113c0.921,0.141 1.821,0.414 2.666,0.808c1.94,0.906 3.558,2.448 4.557,4.342c0.452,0.856 0.775,1.778 0.957,2.729c0.205,1.066 0.232,2.167 0.081,3.242c-0.14,1.004 -0.437,1.984 -0.877,2.897c-0.515,1.069 -1.224,2.042 -2.083,2.861c-0.89,0.848 -1.937,1.528 -3.075,1.993c-1.18,0.482 -2.452,0.729 -3.726,0.729c-1.275,0 -2.546,-0.247 -3.726,-0.729c-1.138,-0.465 -2.186,-1.145 -3.075,-1.993c-0.859,-0.819 -1.569,-1.792 -2.084,-2.861c-0.44,-0.913 -0.736,-1.893 -0.877,-2.897c-0.15,-1.075 -0.123,-2.176 0.081,-3.242c0.182,-0.951 0.506,-1.873 0.958,-2.729c0.999,-1.894 2.617,-3.436 4.557,-4.342c0.844,-0.394 1.744,-0.667 2.666,-0.808c0.455,-0.069 0.913,-0.104 1.373,-0.113c0.127,0 0.127,0 0.254,0ZM9.751,1.714c-0.38,0.008 -0.759,0.036 -1.135,0.094c-0.761,0.116 -1.503,0.341 -2.2,0.666c-1.603,0.748 -2.941,2.024 -3.766,3.588c-0.373,0.707 -0.64,1.468 -0.79,2.252c-0.169,0.882 -0.192,1.793 -0.067,2.683c0.116,0.828 0.36,1.637 0.723,2.39c0.426,0.883 1.013,1.688 1.723,2.364c0.734,0.701 1.6,1.263 2.54,1.647c0.975,0.399 2.025,0.602 3.078,0.602c1.053,0 2.103,-0.203 3.078,-0.602c0.94,-0.384 1.805,-0.946 2.54,-1.647c0.71,-0.676 1.297,-1.481 1.722,-2.364c0.363,-0.753 0.608,-1.562 0.724,-2.39c0.124,-0.89 0.102,-1.801 -0.067,-2.683c-0.15,-0.784 -0.417,-1.545 -0.79,-2.252c-0.826,-1.564 -2.163,-2.84 -3.766,-3.588c-0.697,-0.325 -1.44,-0.55 -2.2,-0.666c-0.376,-0.058 -0.755,-0.086 -1.136,-0.094c-0.106,0 -0.105,0 -0.211,0Z" style="fill:#59518b;fill-rule:nonzero;"/><path d="M9.935,5.079c0.385,0.015 0.761,0.09 1.115,0.24c0.296,0.125 0.571,0.297 0.813,0.507c0.222,0.193 0.417,0.417 0.576,0.665c0.272,0.424 0.436,0.915 0.474,1.418c0.037,0.484 -0.044,0.973 -0.206,1.429c-0.211,0.594 -0.565,1.145 -1.05,1.551l0.753,4.3l-0.151,0.181l-4.804,0l-0.152,-0.181l0.753,-4.3c-0.044,-0.037 -0.086,-0.075 -0.129,-0.113c-0.045,-0.044 -0.09,-0.088 -0.134,-0.133c-0.846,-0.911 -1.246,-2.285 -0.84,-3.483c0.08,-0.235 0.188,-0.46 0.322,-0.669c0.146,-0.227 0.321,-0.435 0.521,-0.616c0.237,-0.216 0.507,-0.394 0.799,-0.526c0.35,-0.158 0.722,-0.243 1.105,-0.267c0.078,-0.003 0.157,-0.004 0.235,-0.003ZM9.652,13.37l0.409,0l-0.204,-1.168c-0.069,0.39 -0.137,0.779 -0.205,1.168ZM9.829,7.079c-0.133,0.005 -0.263,0.031 -0.386,0.083c-0.354,0.149 -0.607,0.489 -0.646,0.871c-0.029,0.292 0.058,0.595 0.188,0.854c0.072,0.144 0.162,0.281 0.275,0.396c0.064,0.064 0.136,0.123 0.219,0.16l0.01,0.004l0.368,0.139c0.105,-0.04 0.272,-0.092 0.399,-0.153c0.081,-0.042 0.151,-0.101 0.213,-0.167c0.106,-0.111 0.191,-0.242 0.26,-0.379c0.126,-0.251 0.211,-0.543 0.189,-0.827c-0.027,-0.366 -0.25,-0.698 -0.577,-0.866c-0.109,-0.056 -0.226,-0.09 -0.347,-0.107c-0.055,-0.006 -0.11,-0.009 -0.165,-0.008Z" style="fill:#59518b;fill-rule:nonzero;"/></g></svg>