<?xml version="1.0" encoding="UTF-8" standalone="no"?>
<svg width="18px" height="18px" viewBox="0 0 18 18" version="1.1" xmlns="http://www.w3.org/2000/svg" xmlns:xlink="http://www.w3.org/1999/xlink" xmlns:sketch="http://www.bohemiancoding.com/sketch/ns">
    <!-- Generator: Sketch 3.5.1 (25234) - http://www.bohemiancoding.com/sketch -->
    <title>Oval 1 Copy 2</title>
    <desc>Created with Sketch.</desc>
    <defs></defs>
    <g id="Page-1" stroke="none" stroke-width="1" fill="none" fill-rule="evenodd" sketch:type="MSPage">
        <g id="Artboard-1-Copy-2" sketch:type="MSArtboardGroup" transform="translate(-1.000000, -1.000000)" fill="#DD6B4E">
            <path d="M10,19 C14.9705627,19 19,14.9705627 19,10 C19,5.02943725 14.9705627,1 10,1 C5.02943725,1 1,5.02943725 1,10 C1,14.9705627 5.02943725,19 10,19 L10,19 L10,19 L10,19 Z M6,5 L10.5624318,5 L10.5624318,8.49205494 L14.0000001,8.49205494 L14,15 L6,15 L6,5 L6,5 L6,5 L6,5 Z M11.3000002,5 L14.0000001,7.80000019 L11.3135978,7.80000019 L11.3000002,5 L11.3000002,5 L11.3000002,5 L11.3000002,5 Z" id="Oval-1-Copy-2" sketch:type="MSShapeGroup"></path>
        </g>
    </g>
</svg>