<?xml version="1.0" encoding="UTF-8" standalone="no"?>
<svg width="20px" height="20px" viewBox="0 0 20 20" version="1.1" xmlns="http://www.w3.org/2000/svg" xmlns:xlink="http://www.w3.org/1999/xlink" xmlns:sketch="http://www.bohemiancoding.com/sketch/ns">
    <!-- Generator: Sketch 3.5.1 (25234) - http://www.bohemiancoding.com/sketch -->
    <title>Artboard 1 Copy 8</title>
    <desc>Created with Sketch.</desc>
    <defs></defs>
    <g id="Page-1" stroke="none" stroke-width="1" fill="none" fill-rule="evenodd" sketch:type="MSPage">
        <g id="Artboard-1-Copy-8" sketch:type="MSArtboardGroup">
            <path d="M10.0427078,14.0863794 C7.80876088,14.0863794 5.99862847,12.2752924 5.99862847,10.0429423 C5.99862847,7.80887225 7.80860437,5.99919259 10.0427078,5.99919259 C12.2766547,5.99919259 14.0863176,7.81168692 14.0863176,10.0429423 C14.0864741,12.2752924 12.2752462,14.0863794 10.0427078,14.0863794 L10.0427078,14.0863794 Z M15.6324267,8.95366312 C15.3915661,8.91926153 15.135368,8.70268793 15.0610283,8.4728228 L14.7038848,7.6032446 C14.5915145,7.38886019 14.6178073,7.05469571 14.7624175,6.86142136 L15.3436757,6.08769848 C15.488286,5.89395502 15.4770176,5.58668633 15.3161309,5.4056089 L14.6797831,4.76855413 C14.4982377,4.60889951 14.1916452,4.59654621 13.9966404,4.74228383 L13.2238206,5.32210688 C13.0303809,5.46768812 12.6965566,5.4941148 12.4823018,5.38168417 L11.6127621,5.0239077 C11.3812918,4.94931881 11.1648459,4.69412161 11.1315104,4.45377964 L10.9942559,3.49772836 C10.9601379,3.25754276 10.7357102,3.04096916 10.4948496,3.01516797 C10.4948496,3.01516797 10.3461702,3 10.0434903,3 C9.74190591,3 9.59166148,3.01516797 9.59166148,3.01516797 C9.35095738,3.04096916 9.12606024,3.25754276 9.09178573,3.49772836 L8.9550007,4.45377964 C8.92041318,4.69396524 8.70381079,4.94931881 8.47327948,5.0239077 L7.60420934,5.38168417 C7.38979802,5.49348931 7.05613017,5.46768812 6.86237746,5.32210688 L6.08846212,4.74181472 C5.89470941,4.59623347 5.58749084,4.60796128 5.40625849,4.76808502 L4.76991072,5.40576527 C4.609963,5.58699907 4.59681661,5.89411139 4.74236591,6.08785485 L5.32252852,6.86095225 C5.46870384,7.05485209 5.4945271,7.38901656 5.38200028,7.60340097 L5.02376121,8.47297918 C4.95036054,8.7039389 4.69416248,8.92004339 4.45330188,8.95381949 L3.49705867,9.08970574 C3.2574501,9.12473281 3.04116071,9.3494377 3.01549396,9.59009241 C3.01549396,9.59009241 3,9.74036478 3,10.0426296 C3,10.3455199 3.01549396,10.4945413 3.01549396,10.4945413 C3.04131722,10.736447 3.2574501,10.9602137 3.49705867,10.9947716 L4.45330188,11.1305015 C4.69291045,11.1658413 4.95036054,11.3813203 5.02376121,11.6121237 L5.38200028,12.4812328 C5.4945271,12.6956172 5.46823432,13.0305635 5.32252852,13.223056 L4.74236591,13.9964661 C4.59681661,14.190366 4.56175958,14.4540072 4.66489612,14.5798857 C4.76756315,14.7070152 5.06226135,15.0211642 5.06335688,15.0224152 C5.06335688,15.0236661 5.16320682,15.1140485 5.28355887,15.2242899 C5.40281539,15.3342186 5.89470941,15.4880875 6.08846212,15.3436009 L6.86175144,14.7622141 C7.05550415,14.6177275 7.38870248,14.5900498 7.60420934,14.703575 L8.47265347,15.0608824 C8.70381079,15.1342203 8.92041318,15.3901994 8.95374866,15.6310105 L9.0906902,16.5870617 C9.1246517,16.8264655 9.34923583,17.0444464 9.59119197,17.0697785 C9.59119197,17.0697785 9.74018436,17.0854156 10.0423948,17.0854156 C10.3442922,17.0854156 10.4943801,17.0697785 10.4943801,17.0697785 C10.7339887,17.0444464 10.9601379,16.8264655 10.9933168,16.5870617 L11.1311974,15.6310105 C11.1645329,15.3916067 11.3812918,15.1339076 11.6119796,15.0608824 L12.4807367,14.7026368 C12.6949915,14.5900498 13.0294419,14.6163201 13.2228816,14.7622141 L13.9958579,15.3436009 C14.1908627,15.4880875 14.4974552,15.4765161 14.6793136,15.3159232 L15.3148788,14.679963 C15.4749831,14.4970092 15.4870339,14.190366 15.3424237,13.9964661 L14.7617915,13.223056 C14.6171813,13.0305635 14.5908885,12.6956172 14.7027893,12.4812328 L15.0604023,11.6121237 C15.1352115,11.3813203 15.3906271,11.1652158 15.6311747,11.1305015 L16.5864789,10.9947716 C16.827183,10.9597445 17.0439419,10.736447 17.0691391,10.4945413 C17.0691391,10.4945413 17.0854156,10.3455199 17.0854156,10.0426296 C17.0854156,9.74036478 17.0691391,9.59009241 17.0691391,9.59009241 C17.0439419,9.3494377 16.827183,9.12457644 16.5864789,9.08970574 L15.6324267,8.95366312 L15.6324267,8.95366312 Z" id="Shape" fill="#524B7A" sketch:type="MSShapeGroup"></path>
            <ellipse id="Oval" stroke="#524B7A" stroke-width="4" sketch:type="MSShapeGroup" cx="10.175" cy="10.175" rx="3.17499995" ry="3.17499995"></ellipse>
        </g>
    </g>
</svg>