<?xml version="1.0" encoding="UTF-8" standalone="no"?>
<svg width="15px" height="15px" viewBox="0 0 15 15" version="1.1" xmlns="http://www.w3.org/2000/svg" xmlns:xlink="http://www.w3.org/1999/xlink">
    <!-- Generator: Sketch 3.7.2 (28276) - http://www.bohemiancoding.com/sketch -->
    <title>settings</title>
    <desc>Created with Sketch.</desc>
    <defs></defs>
    <g id="02-16-2016" stroke="none" stroke-width="1" fill="none" fill-rule="evenodd">
        <g id="UI_web_toolkit" transform="translate(-2864.000000, -357.000000)">
            <g id="icons" transform="translate(1821.000000, 218.000000)">
                <g id="settings" transform="translate(1043.000000, 139.000000)">
                    <path d="M7.04270779,11.0863794 C4.80876088,11.0863794 2.99862847,9.27529236 2.99862847,7.04294234 C2.99862847,4.80887225 4.80860437,2.99919259 7.04270779,2.99919259 C9.2766547,2.99919259 11.0863176,4.81168692 11.0863176,7.04294234 C11.0864741,9.27529236 9.27524616,11.0863794 7.04270779,11.0863794 L7.04270779,11.0863794 Z M12.6324267,5.95366312 C12.3915661,5.91926153 12.135368,5.70268793 12.0610283,5.4728228 L11.7038848,4.6032446 C11.5915145,4.38886019 11.6178073,4.05469571 11.7624175,3.86142136 L12.3436757,3.08769848 C12.488286,2.89395502 12.4770176,2.58668633 12.3161309,2.4056089 L11.6797831,1.76855413 C11.4982377,1.60889951 11.1916452,1.59654621 10.9966404,1.74228383 L10.2238206,2.32210688 C10.0303809,2.46768812 9.69655659,2.4941148 9.48230177,2.38168417 L8.61276211,2.0239077 C8.38129178,1.94931881 8.1648459,1.69412161 8.13151041,1.45377964 L7.99425586,0.497728363 C7.96013786,0.257542763 7.73571023,0.0409691584 7.49484963,0.0151679709 C7.49484963,0.0151679709 7.34617024,4.97379915e-14 7.04349031,4.97379915e-14 C6.74190591,4.97379915e-14 6.59166148,0.0151679709 6.59166148,0.0151679709 C6.35095738,0.0409691584 6.12606024,0.257542763 6.09178573,0.497728363 L5.9550007,1.45377964 C5.92041318,1.69396524 5.70381079,1.94931881 5.47327948,2.0239077 L4.60420934,2.38168417 C4.38979802,2.49348931 4.05613017,2.46768812 3.86237746,2.32210688 L3.08846212,1.74181472 C2.89470941,1.59623347 2.58749084,1.60796128 2.40625849,1.76808502 L1.76991072,2.40576527 C1.609963,2.58699907 1.59681661,2.89411139 1.74236591,3.08785485 L2.32252852,3.86095225 C2.46870384,4.05485209 2.4945271,4.38901656 2.38200028,4.60340097 L2.02376121,5.47297918 C1.95036054,5.7039389 1.69416248,5.92004339 1.45330188,5.95381949 L0.497058665,6.08970574 C0.257450096,6.12473281 0.0411607144,6.3494377 0.0154939571,6.59009241 C0.0154939571,6.59009241 4.4408921e-15,6.74036478 4.4408921e-15,7.0426296 C4.4408921e-15,7.34551991 0.0154939571,7.49454131 0.0154939571,7.49454131 C0.041317219,7.73644699 0.257450096,7.96021365 0.497058665,7.99477161 L1.45330188,8.13050149 C1.69291045,8.1658413 1.95036054,8.38132031 2.02376121,8.61212366 L2.38200028,9.48123275 C2.4945271,9.69561717 2.46823432,10.0305635 2.32252852,10.223056 L1.74236591,10.9964661 C1.59681661,11.190366 1.56175958,11.4540072 1.66489612,11.5798857 C1.76756315,11.7070152 2.06226135,12.0211642 2.06335688,12.0224152 C2.06335688,12.0236661 2.16320682,12.1140485 2.28355887,12.2242899 C2.40281539,12.3342186 2.89470941,12.4880875 3.08846212,12.3436009 L3.86175144,11.7622141 C4.05550415,11.6177275 4.38870248,11.5900498 4.60420934,11.703575 L5.47265347,12.0608824 C5.70381079,12.1342203 5.92041318,12.3901994 5.95374866,12.6310105 L6.0906902,13.5870617 C6.1246517,13.8264655 6.34923583,14.0444464 6.59119197,14.0697785 C6.59119197,14.0697785 6.74018436,14.0854156 7.04239478,14.0854156 C7.34429219,14.0854156 7.49438011,14.0697785 7.49438011,14.0697785 C7.73398868,14.0444464 7.96013786,13.8264655 7.99331684,13.5870617 L8.1311974,12.6310105 C8.16453289,12.3916067 8.38129178,12.1339076 8.61197959,12.0608824 L9.48073672,11.7026368 C9.69499154,11.5900498 10.0294419,11.6163201 10.2228816,11.7622141 L10.9958579,12.3436009 C11.1908627,12.4880875 11.4974552,12.4765161 11.6793136,12.3159232 L12.3148788,11.679963 C12.4749831,11.4970092 12.4870339,11.190366 12.3424237,10.9964661 L11.7617915,10.223056 C11.6171813,10.0305635 11.5908885,9.69561717 11.7027893,9.48123275 L12.0604023,8.61212366 C12.1352115,8.38132031 12.3906271,8.16521582 12.6311747,8.13050149 L13.5864789,7.99477161 C13.827183,7.95974454 14.0439419,7.73644699 14.0691391,7.49454131 C14.0691391,7.49454131 14.0854156,7.34551991 14.0854156,7.0426296 C14.0854156,6.74036478 14.0691391,6.59009241 14.0691391,6.59009241 C14.0439419,6.3494377 13.827183,6.12457644 13.5864789,6.08970574 L12.6324267,5.95366312 L12.6324267,5.95366312 Z" id="Shape" fill="#59518B"></path>
                    <ellipse id="Oval" stroke="#524B7A" stroke-width="4" cx="7.04270779" cy="7.04270779" rx="3.13009235" ry="3.13009235"></ellipse>
                </g>
            </g>
        </g>
    </g>
</svg>