<?xml version="1.0" encoding="UTF-8" standalone="no"?>
<svg width="13px" height="13px" viewBox="0 0 13 13" version="1.1" xmlns="http://www.w3.org/2000/svg" xmlns:xlink="http://www.w3.org/1999/xlink">
    <!-- Generator: Sketch 3.7.2 (28276) - http://www.bohemiancoding.com/sketch -->
    <title>support</title>
    <desc>Created with Sketch.</desc>
    <defs></defs>
    <g id="02-16-2016" stroke="none" stroke-width="1" fill="none" fill-rule="evenodd">
        <g id="UI_web_toolkit" transform="translate(-2965.000000, -358.000000)" fill="#59518B">
            <g id="icons" transform="translate(1821.000000, 218.000000)">
                <path d="M1150.16237,140 C1146.75252,140 1144,142.752525 1144,146.162369 C1144,149.55852 1146.75252,152.324739 1150.16237,152.324739 C1153.57221,152.324739 1156.32474,149.55852 1156.32474,146.162369 C1156.32474,142.752525 1153.57221,140 1150.16237,140 L1150.16237,140 L1150.16237,140 Z M1149.99804,150.571887 C1149.53244,150.571887 1149.1627,150.202145 1149.1627,149.736544 C1149.1627,149.270942 1149.53244,148.9012 1149.99804,148.9012 C1150.46364,148.9012 1150.83338,149.284636 1150.83338,149.736544 C1150.83338,150.202145 1150.46364,150.571887 1149.99804,150.571887 L1149.99804,150.571887 L1149.99804,150.571887 Z M1151.32637,146.285617 C1150.95663,146.669053 1150.69644,146.95663 1150.69644,147.586561 C1150.69644,147.969998 1150.38148,148.284963 1149.99804,148.284963 C1149.6146,148.284963 1149.29964,147.969998 1149.29964,147.586561 C1149.29964,146.39517 1149.87479,145.778933 1150.29931,145.327026 C1150.66905,144.929895 1150.84708,144.724483 1150.84708,144.272576 C1150.84708,143.806975 1150.46364,143.423539 1149.99804,143.423539 C1149.53244,143.423539 1149.149,143.806975 1149.149,144.272576 C1149.149,144.656012 1148.83404,144.970978 1148.4506,144.970978 C1148.06716,144.970978 1147.7522,144.656012 1147.7522,144.272576 C1147.7522,143.040102 1148.75187,142.040429 1149.98435,142.040429 C1151.21682,142.040429 1152.21649,143.040102 1152.21649,144.272576 C1152.24388,145.299638 1151.7372,145.847404 1151.32637,146.285617 L1151.32637,146.285617 Z" id="support"></path>
            </g>
        </g>
    </g>
</svg>