<?xml version="1.0" encoding="UTF-8" standalone="no"?>
<svg width="20px" height="20px" viewBox="0 0 20 20" version="1.1" xmlns="http://www.w3.org/2000/svg" xmlns:xlink="http://www.w3.org/1999/xlink" xmlns:sketch="http://www.bohemiancoding.com/sketch/ns">
    <!-- Generator: Sketch 3.5.1 (25234) - http://www.bohemiancoding.com/sketch -->
    <title>Artboard 1 Copy 9</title>
    <desc>Created with Sketch.</desc>
    <defs></defs>
    <g id="Page-1" stroke="none" stroke-width="1" fill="none" fill-rule="evenodd" sketch:type="MSPage">
        <g id="Artboard-1-Copy-9" sketch:type="MSArtboardGroup" fill="#524B7A">
            <path d="M10.1623693,4 C6.75252496,4 4,6.75252496 4,10.1623693 C4,13.5585195 6.75252496,16.3247386 10.1623693,16.3247386 C13.5722137,16.3247386 16.3247386,13.5585195 16.3247386,10.1623693 C16.3247386,6.75252496 13.5722137,4 10.1623693,4 L10.1623693,4 L10.1623693,4 Z M9.99803947,14.5718869 C9.53243823,14.5718869 9.16269607,14.2021448 9.16269607,13.7365435 C9.16269607,13.2709423 9.53243823,12.9012001 9.99803947,12.9012001 C10.4636407,12.9012001 10.8333829,13.2846364 10.8333829,13.7365435 C10.8333829,14.2021448 10.4636407,14.5718869 9.99803947,14.5718869 L9.99803947,14.5718869 L9.99803947,14.5718869 Z M11.3263724,10.2856167 C10.9566302,10.669053 10.6964413,10.9566302 10.6964413,11.5865613 C10.6964413,11.9699976 10.3814758,12.2849632 9.99803947,12.2849632 C9.61460315,12.2849632 9.29963761,11.9699976 9.29963761,11.5865613 C9.29963761,10.3951699 9.87479208,9.778933 10.2993109,9.32702592 C10.669053,8.92989545 10.847077,8.72448314 10.847077,8.27257606 C10.847077,7.80697482 10.4636407,7.42353851 9.99803947,7.42353851 C9.53243823,7.42353851 9.14900192,7.80697482 9.14900192,8.27257606 C9.14900192,8.65601237 8.83403637,8.97097791 8.45060006,8.97097791 C8.06716375,8.97097791 7.75219821,8.65601237 7.75219821,8.27257606 C7.75219821,7.0401022 8.75187145,6.04042895 9.98434531,6.04042895 C11.2168192,6.04042895 12.2164924,7.0401022 12.2164924,8.27257606 C12.2438807,9.29963761 11.737197,9.84740377 11.3263724,10.2856167 L11.3263724,10.2856167 Z" id="support" sketch:type="MSShapeGroup"></path>
        </g>
    </g>
</svg>