<?xml version="1.0" encoding="UTF-8" standalone="no"?>
<svg width="20px" height="20px" viewBox="0 0 20 20" version="1.1" xmlns="http://www.w3.org/2000/svg" xmlns:xlink="http://www.w3.org/1999/xlink" xmlns:sketch="http://www.bohemiancoding.com/sketch/ns">
    <!-- Generator: Sketch 3.5.1 (25234) - http://www.bohemiancoding.com/sketch -->
    <title>Artboard 1 Copy 7</title>
    <desc>Created with Sketch.</desc>
    <defs></defs>
    <g id="Page-1" stroke="none" stroke-width="1" fill="none" fill-rule="evenodd" sketch:type="MSPage">
        <g id="Artboard-1-Copy-7" sketch:type="MSArtboardGroup" fill="#E9A631">
            <path d="M10.4729679,5 C7.45843139,5 5,7.4622832 5,10.5 C5,13.5377168 7.45831685,16 10.4729679,16 C13.4879626,16 16,13.5377168 16,10.5 C16,7.4622832 13.4880771,5 10.4729679,5 L10.4729679,5 Z M14.8195223,12.2205751 L13.3627674,12.2205751 C13.4418019,11.8175998 13.4902535,11.382217 13.499875,10.9146557 L15.1259242,10.9146557 C15.0861778,11.3720252 14.9804548,11.8102709 14.8195223,12.2205751 L14.8195223,12.2205751 Z M15.1263823,10.0877491 L13.4766229,10.0877491 C13.4421455,9.64011326 13.3722744,9.21492223 13.2750276,8.8156114 L14.8338401,8.8156114 C14.9872129,9.21618189 15.087896,9.64297612 15.1263823,10.0877491 L15.1263823,10.0877491 Z M14.4193098,7.98870474 L13.0202845,7.98870474 C12.6879959,7.10591518 12.214018,6.40589019 11.6928484,5.96615586 C12.8340379,6.27660372 13.8015807,7.01029586 14.4193098,7.98870474 L14.4193098,7.98870474 Z M10.9113231,6.28187137 C11.4176021,6.51662537 11.864548,7.13568885 12.1741571,7.98870474 L10.9113231,7.98870474 L10.9113231,6.28187137 L10.9113231,6.28187137 Z M10.9113231,8.8156114 L12.4135515,8.8156114 C12.5025512,9.21205938 12.5655497,9.63919715 12.5968199,10.0877491 L10.9113231,10.0877491 L10.9113231,8.8156114 L10.9113231,8.8156114 Z M12.6177812,10.9146557 C12.6089614,11.3875992 12.5630298,11.8229819 12.488806,12.2205751 L10.9113231,12.2205751 L10.9113231,10.9146557 L12.6177812,10.9146557 L12.6177812,10.9146557 Z M5.80935919,10.9146557 L7.41891413,10.9146557 C7.42853573,11.382217 7.47687277,11.8177143 7.55602183,12.2205751 L6.11587563,12.2205751 C5.9548285,11.8102709 5.84922007,11.3720252 5.80935919,10.9146557 L5.80935919,10.9146557 Z M8.35289585,10.9146557 L10.0590104,10.9146557 L10.0590104,12.2205751 L8.47591478,12.2205751 C8.40512735,11.8228674 8.36125747,11.3877137 8.35289585,10.9146557 L8.35289585,10.9146557 Z M8.37271175,10.0877491 C8.40237832,9.63919715 8.46239873,9.21205938 8.54761855,8.8156114 L10.0588958,8.8156114 L10.0588958,10.0877491 L8.37271175,10.0877491 L8.37271175,10.0877491 Z M10.0590104,6.26034271 L10.0590104,7.98870474 L8.7772768,7.98870474 C9.08516775,7.10786192 9.53761168,6.47677445 10.0590104,6.26034271 L10.0590104,6.26034271 Z M9.21826645,5.97302671 C8.70018952,6.41310458 8.2293042,7.11049574 7.89861924,7.98870474 L6.51608805,7.98870474 C7.12957911,7.01728123 8.08772935,6.28725353 9.21826645,5.97302671 L9.21826645,5.97302671 Z M6.10144324,8.8156114 L7.64376158,8.8156114 C7.54651478,9.21492223 7.47664369,9.64011326 7.44216632,10.0877491 L5.80890101,10.0877491 C5.84738738,9.64297612 5.94818502,9.21618189 6.10144324,8.8156114 L6.10144324,8.8156114 Z M6.53911115,13.0475962 L7.77686028,13.0475962 C8.06401899,13.8851527 8.49847971,14.5305545 8.99192994,14.9576922 C7.97375929,14.6176997 7.11148135,13.935768 6.53911115,13.0475962 L6.53911115,13.0475962 Z M8.6814045,13.0475962 L10.0590104,13.0475962 L10.0590104,14.7582086 C9.47988213,14.5699473 8.98689006,13.9695496 8.6814045,13.0475962 L8.6814045,13.0475962 Z M10.9113231,14.7412605 L10.9113231,13.0475962 L12.2739238,13.0475962 C11.9651165,13.9432114 11.4755607,14.5358221 10.9113231,14.7412605 L10.9113231,14.7412605 Z M11.9165504,14.9668534 C12.4143532,14.5398301 12.8527084,13.8911075 13.1419289,13.0475962 L14.3964013,13.0475962 C13.8191057,13.9436694 12.9465189,14.6298382 11.9165504,14.9668534 L11.9165504,14.9668534 Z" id="visa-status" sketch:type="MSShapeGroup"></path>
        </g>
    </g>
</svg>