<?xml version="1.0" encoding="UTF-8" standalone="no"?>
<svg width="11px" height="11px" viewBox="0 0 11 11" version="1.1" xmlns="http://www.w3.org/2000/svg" xmlns:xlink="http://www.w3.org/1999/xlink">
    <!-- Generator: Sketch 3.7.2 (28276) - http://www.bohemiancoding.com/sketch -->
    <title>visa status</title>
    <desc>Created with Sketch.</desc>
    <defs></defs>
    <g id="02-16-2016" stroke="none" stroke-width="1" fill="none" fill-rule="evenodd">
        <g id="UI_web_toolkit" transform="translate(-2766.000000, -359.000000)" fill="#E9A631">
            <g id="icons" transform="translate(1821.000000, 218.000000)">
                <path d="M950.25607,141 C947.361002,141 945,143.364701 945,146.282031 C945,149.199361 947.360892,151.564062 950.25607,151.564062 C953.151578,151.564062 955.564062,149.199361 955.564062,146.282031 C955.564062,143.364701 953.151688,141 950.25607,141 L950.25607,141 Z M954.430367,147.934418 L953.031345,147.934418 C953.107247,147.547413 953.153778,147.129285 953.163019,146.680253 L954.724626,146.680253 C954.686455,147.119497 954.584922,147.540375 954.430367,147.934418 L954.430367,147.934418 Z M954.725066,145.886118 L953.140688,145.886118 C953.107577,145.456222 953.040475,145.047882 952.947082,144.664396 L954.444118,144.664396 C954.591412,145.049091 954.688105,145.458971 954.725066,145.886118 L954.725066,145.886118 Z M954.046015,143.87026 L952.702435,143.87026 C952.383315,143.022456 951.928121,142.350174 951.427606,141.927866 C952.523569,142.226011 953.452767,142.930626 954.046015,143.87026 L954.046015,143.87026 Z M950.677053,142.23107 C951.163268,142.45652 951.592501,143.05105 951.88984,143.87026 L950.677053,143.87026 L950.677053,142.23107 L950.677053,142.23107 Z M950.677053,144.664396 L952.119747,144.664396 C952.205219,145.045132 952.265721,145.455342 952.295752,145.886118 L950.677053,145.886118 L950.677053,144.664396 L950.677053,144.664396 Z M952.315883,146.680253 C952.307413,147.134454 952.263301,147.552582 952.192019,147.934418 L950.677053,147.934418 L950.677053,146.680253 L952.315883,146.680253 L952.315883,146.680253 Z M945.777284,146.680253 L947.323051,146.680253 C947.332291,147.129285 947.378712,147.547523 947.454725,147.934418 L946.071653,147.934418 C945.916988,147.540375 945.815565,147.119497 945.777284,146.680253 L945.777284,146.680253 Z M948.220018,146.680253 L949.858518,146.680253 L949.858518,147.934418 L948.338162,147.934418 C948.27018,147.552472 948.228048,147.134564 948.220018,146.680253 L948.220018,146.680253 Z M948.239049,145.886118 C948.267539,145.455342 948.325181,145.045132 948.407024,144.664396 L949.858408,144.664396 L949.858408,145.886118 L948.239049,145.886118 L948.239049,145.886118 Z M949.858518,142.210394 L949.858518,143.87026 L948.62758,143.87026 C948.923269,143.024326 949.357783,142.418249 949.858518,142.210394 L949.858518,142.210394 Z M949.051093,141.934465 C948.553548,142.357102 948.101324,143.026855 947.783745,143.87026 L946.456004,143.87026 C947.045182,142.937335 947.96536,142.236239 949.051093,141.934465 L949.051093,141.934465 Z M946.057792,144.664396 L947.538987,144.664396 C947.445594,145.047882 947.378492,145.456222 947.345381,145.886118 L945.776844,145.886118 C945.813805,145.458971 945.910608,145.049091 946.057792,144.664396 L946.057792,144.664396 Z M946.478115,148.728664 L947.666811,148.728664 C947.94259,149.533027 948.359832,150.152851 948.833727,150.563061 C947.855907,150.236543 947.027802,149.581637 946.478115,148.728664 L946.478115,148.728664 Z M948.535508,148.728664 L949.858518,148.728664 L949.858518,150.371483 C949.302341,150.190683 948.828887,149.61408 948.535508,148.728664 L948.535508,148.728664 Z M950.677053,150.355207 L950.677053,148.728664 L951.985653,148.728664 C951.689084,149.588785 951.218929,150.15791 950.677053,150.355207 L950.677053,150.355207 Z M951.642442,150.571859 C952.120517,150.161759 952.5415,149.538746 952.819258,148.728664 L954.024015,148.728664 C953.469598,149.589225 952.631592,150.2482 951.642442,150.571859 L951.642442,150.571859 Z" id="visa-status"></path>
            </g>
        </g>
    </g>
</svg>