<?xml version="1.0" standalone="no"?>
<!DOCTYPE svg PUBLIC "-//W3C//DTD SVG 1.1//EN" "http://www.w3.org/Graphics/SVG/1.1/DTD/svg11.dtd" >
<svg xmlns="http://www.w3.org/2000/svg">
<metadata>
<json>
<![CDATA[
{
	"fontFamily": "underdogio-icons",
	"majorVersion": 1,
	"minorVersion": 0,
	"version": "Version 1.0",
	"fontId": "underdogio-icons",
	"psName": "underdogio-icons",
	"subFamily": "Regular",
	"fullName": "underdogio-icons",
	"description": "Font generated by IcoMoon."
}
]]>
</json>
</metadata>
<defs>
<font id="underdogio-icons" horiz-adv-x="1024">
<font-face units-per-em="1024" ascent="1024" descent="0" />
<missing-glyph horiz-adv-x="1024" />
<glyph unicode="&#x20;" horiz-adv-x="512" d="" />
<glyph unicode="&#xe900;" glyph-name="no" data-tags="no" d="M512 1024c-282.757 0-512-229.243-512-512s229.243-512 512-512c282.757 0 512 229.243 512 512s-229.243 512-512 512zM512 916.214c89.487 0 171.909-29.43 238.879-78.674l-564.419-564.419c-49.244 66.97-78.674 149.391-78.674 238.879 0 223.232 180.982 404.214 404.214 404.214zM512 107.786c-81.766 0-157.757 24.463-221.379 66.212l559.36 559.37c41.748-63.621 66.212-139.602 66.212-221.389 0.020-223.212-180.961-404.193-404.193-404.193z" />
<glyph unicode="&#xe901;" glyph-name="back" data-tags="back" d="M736 891.259v47.407l-480-426.667 480-426.667v47.407l-426.667 379.259 426.667 379.259z" />
<glyph unicode="&#xe902;" glyph-name="close" data-tags="close" d="M1023.061 103.851l-57.941-62.72-961.536 887.637 57.856 62.72c320.512-295.936 641.024-591.787 961.621-887.637zM1019.307 928.768l-961.536-887.637-57.941 62.72 961.621 887.637c19.285-20.907 38.571-41.813 57.856-62.72z" />
<glyph unicode="&#xe903;" glyph-name="copy-link" data-tags="copy-link" d="M166.4 512c0 72.96 59.307 132.267 132.267 132.267h170.667v81.067h-170.667c-117.76 0-213.333-95.573-213.333-213.333s95.573-213.333 213.333-213.333h170.667v81.067h-170.667c-72.96 0-132.267 59.307-132.267 132.267zM341.333 469.333h341.333v85.333h-341.333v-85.333zM725.333 725.333h-170.667v-81.067h170.667c72.96 0 132.267-59.307 132.267-132.267s-59.307-132.267-132.267-132.267h-170.667v-81.067h170.667c117.76 0 213.333 95.573 213.333 213.333s-95.573 213.333-213.333 213.333z" />
<glyph unicode="&#xe904;" glyph-name="download" data-tags="download" d="M766.647 157.538v-91.689h-569.724v91.689zM767.896 567.064l-285.486-192.91-285.486 192.91 41.688 60.866 197.954-135.851v531.921h91.689v-531.921l197.954 135.851z" />
<glyph unicode="&#xe905;" glyph-name="dribble" data-tags="dribble" d="M502.869 512.138c13.682 5.59 28.388 9.133 42.524 15.277-6.542 11.984-12.828 25.794-18.546 36.892-2.048 4.068-3.499 9.078-7.367 11.707-91.051-25.683-191.972-41.735-309.788-41.403-2.389-92.52 32.142-157.059 77.682-206.018 52.565 79.097 122.453 145.519 215.495 183.545zM564.793 477.073c-104.875-36.809-187.278-95.509-238.535-184.458 34.475-26.347 81.266-49.097 135.936-58.479 60.217-10.323 123.307 0.581 168.306 19.816-13.54 75.472-35.356 147.207-60.132 210.529-1.593 4.041-1.394 9.686-5.575 12.592zM382.72 791.967c-84.338-40.932-143.474-106.413-167.424-206.073 104.846 1.19 197.86 13.838 280.178 36.892-35.641 58.34-71.424 116.432-112.754 169.181zM512.028 1024c-282.852 0-512.028-223.094-512.028-498.218s229.177-498.19 512.028-498.19c257.764 0 470.983 185.427 506.624 426.676 3.499 16.467 5.12 33.432 4.807 50.896 0.284 6.864 0.54 13.755 0.54 20.618 0 275.124-229.234 498.218-511.972 498.218v0 0zM773.774 291.729c-28.245-30.083-61.81-54.272-101.717-73.811-39.68-19.428-84.964-34.373-138.667-36.892-113.209-5.341-201.842 37.002-260.807 89.946-60.757 54.549-106.638 127.613-114.66 233.029-4.238 56.043 7.083 105.583 24.064 147.567 17.636 43.645 38.571 76.33 67.47 107.050 40.448 42.953 95.431 80.342 164.58 98.968 24.86 6.698 50.716 10.987 76.8 12.62 115.769 7.251 201.33-38.109 261.604-90.859 60.132-52.528 107.406-128.858 113.778-233.942 6.798-110.537-36.864-194.698-92.444-253.675v0 0zM623.104 491.465c23.353-66.062 44.857-133.867 58.254-209.643 16.725 9.105 31.602 21.753 45.312 35.12 41.842 40.711 72.732 93.544 85.020 161.903-52.082 14.806-125.127 22.39-188.587 12.62zM555.577 639.889c63.346 25.019 119.694 56.874 157.156 107.077-49.749 40.711-121.458 77.52-212.651 72.87-22.13-1.107-38.457-2.712-58.254-7.196 34.020-48.598 70.315-99.024 99.868-150.279 4.352-7.389 7.282-16.19 13.881-22.473zM577.764 594.916c7.14-13.478 14.308-28.561 20.395-42.288 2.133-5.009 3.072-10.877 7.396-14.419 70.286 7.638 148.423 1.937 209.863-9.908-2.389 80.785-29.924 137.022-68.409 182.659-43.975-50.757-102.229-87.677-169.244-116.044z" />
<glyph unicode="&#xe906;" glyph-name="filter" data-tags="filter" d="M612 848v-74.498h-606v74.498h606zM468.9 581.756v-74.498h-462.9v74.498zM63 315.512c29.53 0 69.689 0 109 0 69.917 0 137.154 0 137.154 0v-74.498h-303.154v74.498c0 0 38 0 57 0zM1020.351 348.74l-231.958-156.74-231.958 156.74 33.871 49.454 160.838-110.379v560.186h74.498v-560.186l160.838 110.379z" />
<glyph unicode="&#xe907;" glyph-name="github" data-tags="github" d="M512 1024c-282.88 0-512-229.12-512-512 0-226.56 146.56-417.92 350.080-485.76 25.6-4.48 35.2 10.88 35.2 24.32 0 12.16-0.64 52.48-0.64 95.36-128.64-23.68-161.92 31.36-172.16 60.16-5.76 14.72-30.72 60.16-52.48 72.32-17.92 9.6-43.52 33.28-0.64 33.92 40.32 0.64 69.12-37.12 78.72-52.48 46.080-77.44 119.68-55.68 149.12-42.24 4.48 33.28 17.92 55.68 32.64 68.48-113.92 12.8-232.96 56.96-232.96 252.8 0 55.68 19.84 101.76 52.48 137.6-5.12 12.8-23.040 65.28 5.12 135.68 0 0 42.88 13.44 140.8-52.48 40.96 11.52 84.48 17.28 128 17.28s87.040-5.76 128-17.28c97.92 66.56 140.8 52.48 140.8 52.48 28.16-70.4 10.24-122.88 5.12-135.68 32.64-35.84 52.48-81.28 52.48-137.6 0-196.48-119.68-240-233.6-252.8 18.56-16 34.56-46.72 34.56-94.72 0-68.48-0.64-123.52-0.64-140.8 0-13.44 9.6-29.44 35.2-24.32 202.24 67.84 348.8 259.84 348.8 485.76 0 282.88-229.12 512-512 512z" />
<glyph unicode="&#xe908;" glyph-name="linkedin" data-tags="linkedin" d="M486.4 997.053c-270.222 0-486.4-215.579-486.4-485.053s216.178-485.053 486.4-485.053c270.222 0 486.4 215.579 486.4 485.053s-216.178 485.053-486.4 485.053v0zM345.884 291.032h-108.089v339.537h108.089v-339.537zM291.84 673.684c-32.427 0-59.449 26.947-59.449 59.284s27.022 59.284 59.449 59.284c32.427 0 59.449-26.947 59.449-59.284 5.404-32.337-27.022-59.284-59.449-59.284v0zM740.409 291.032h-102.684v167.074c0 37.726 0 91.621-54.044 91.621s-64.853-43.116-64.853-86.232v-167.074h-102.684v339.537h102.684v-48.505c16.213 26.947 48.64 53.895 97.28 53.895 108.089 0 124.302-70.063 124.302-161.684v-188.632z" />
<glyph unicode="&#xe909;" glyph-name="location" data-tags="location" d="M537.6 768c-98.228 0-178.138-73.794-178.138-166.823 0-20.617 4.646-43.12 13.009-63.36h-0.133l0.796-1.509c0.664-1.383 1.327-2.766 1.991-4.149l162.475-327.36 162.475 327.234c0.664 1.383 1.46 2.766 2.124 4.274l0.531 1.383c8.628 20.24 13.009 41.611 13.009 63.234 0 93.28-79.91 167.074-178.138 167.074v0zM537.6 548.126c-34.38 0-62.255 26.4-62.255 58.96s27.876 58.96 62.255 58.96c34.38 0 62.255-26.4 62.255-58.96s-27.876-58.96-62.255-58.96v0z" />
<glyph unicode="&#xe90a;" glyph-name="locked" data-tags="locked" d="M511.181 1024c23.552-0.461 47.002-2.253 70.298-5.786 47.155-7.219 93.235-21.197 136.499-41.37 99.328-46.387 182.17-125.338 233.318-222.31 23.142-43.827 39.68-91.034 48.998-139.725 10.496-54.579 11.878-110.95 4.147-165.99-7.168-51.405-22.374-101.581-44.902-148.326-26.368-54.733-62.669-104.55-106.65-146.483-45.568-43.418-99.174-78.234-157.44-102.042-60.416-24.678-125.542-37.325-190.771-37.325-65.28 0-130.355 12.646-190.771 37.325-58.266 23.808-111.923 58.624-157.44 102.042-43.981 41.933-80.333 91.75-106.701 146.483-22.528 46.746-37.683 96.922-44.902 148.326-7.68 55.040-6.298 111.411 4.147 165.99 9.318 48.691 25.907 95.898 49.050 139.725 51.149 96.973 133.99 175.923 233.318 222.31 43.213 20.173 89.293 34.15 136.499 41.37 23.296 3.533 46.746 5.325 70.298 5.786 6.502 0 6.502 0 13.005 0zM499.251 936.243c-19.456-0.41-38.861-1.843-58.112-4.813-38.963-5.939-76.954-17.459-112.64-34.099-82.074-38.298-150.579-103.629-192.819-183.706-19.098-36.198-32.768-75.162-40.448-115.302-8.653-45.158-9.83-91.802-3.43-137.37 5.939-42.394 18.432-83.814 37.018-122.368 21.811-45.21 51.866-86.426 88.218-121.037 37.581-35.891 81.92-64.666 130.048-84.326 49.92-20.429 103.68-30.822 157.594-30.822s107.674 10.394 157.594 30.822c48.128 19.661 92.416 48.435 130.048 84.326 36.352 34.611 66.406 75.827 88.166 121.037 18.586 38.554 31.13 79.974 37.069 122.368 6.349 45.568 5.222 92.211-3.43 137.37-7.68 40.141-21.35 79.104-40.448 115.302-42.291 80.077-110.746 145.408-192.819 183.706-35.686 16.64-73.728 28.16-112.64 34.099-19.251 2.97-38.656 4.403-58.163 4.813-5.427 0-5.376 0-10.803 0zM508.672 763.955c19.712-0.768 38.963-4.608 57.088-12.288 15.155-6.4 29.235-15.206 41.626-25.958 11.366-9.882 21.35-21.35 29.491-34.048 13.926-21.709 22.323-46.848 24.269-72.602 1.894-24.781-2.253-49.818-10.547-73.165-10.803-30.413-28.928-58.624-53.76-79.411l38.554-220.16-7.731-9.267h-245.965l-7.782 9.267 38.554 220.16c-2.253 1.894-4.403 3.84-6.605 5.786-2.304 2.253-4.608 4.506-6.861 6.81-43.315 46.643-63.795 116.992-43.008 178.33 4.096 12.032 9.626 23.552 16.486 34.253 7.475 11.622 16.435 22.272 26.675 31.539 12.134 11.059 25.958 20.173 40.909 26.931 17.92 8.090 36.966 12.442 56.576 13.67 3.994 0.154 8.038 0.205 12.032 0.154zM494.182 339.456h20.941l-10.445 59.802c-3.533-19.968-7.014-39.885-10.496-59.802zM503.245 661.555c-6.81-0.256-13.466-1.587-19.763-4.25-18.125-7.629-31.078-25.037-33.075-44.595-1.485-14.95 2.97-30.464 9.626-43.725 3.686-7.373 8.294-14.387 14.080-20.275 3.277-3.277 6.963-6.298 11.213-8.192l0.512-0.205 18.842-7.117c5.376 2.048 13.926 4.71 20.429 7.834 4.147 2.15 7.731 5.171 10.906 8.55 5.427 5.683 9.779 12.39 13.312 19.405 6.451 12.851 10.803 27.802 9.677 42.342-1.382 18.739-12.8 35.738-29.542 44.339-5.581 2.867-11.571 4.608-17.766 5.478-2.816 0.307-5.632 0.461-8.448 0.41z" />
<glyph unicode="&#xe90b;" glyph-name="menu" data-tags="menu" d="M71.549 938.667h853.333v-141.997h-853.333v141.997zM71.549 583.675h853.333v-141.997h-853.333v141.997zM71.549 228.683h853.333v-141.997h-853.333v141.997z" />
<glyph unicode="&#xe90c;" glyph-name="next" data-tags="next" d="M298.667 132.741v-47.407l480 426.667-480 426.667v-47.407l426.667-379.259z" />
<glyph unicode="&#xe90d;" glyph-name="other-link" data-tags="other-link" d="M508.473 7.054c-280.804 0-508.473 227.669-508.473 508.473s227.669 508.473 508.473 508.473c280.804 0 508.473-227.669 508.473-508.473s-227.669-508.473-508.473-508.473zM785.806 512l-266.695 266.695-266.695-266.695h78.222v-266.695h117.362v188.473h138.695l-0.057-188.473h120.889v266.695h78.222z" />
<glyph unicode="&#xe90e;" glyph-name="referral" data-tags="referral" d="M491.709 239.891l-289.019-151.947 55.198 321.828-233.822 227.92 323.133 46.954 144.51 292.809 144.51-292.809 323.133-46.954-233.822-227.92 55.198-321.828z" />
<glyph unicode="&#xe90f;" glyph-name="resume" data-tags="resume" d="M512 0c282.795 0 512 229.205 512 512s-229.205 512-512 512c-282.795 0-512-229.205-512-512s229.205-512 512-512zM284.444 796.444h259.527v-198.656h195.584v-370.233h-455.111v568.889zM585.956 796.444l153.6-159.289h-152.804l-0.796 159.289z" />
<glyph unicode="&#xe910;" glyph-name="settings" data-tags="settings" d="M480.782 267.17c-152.504 0-276.076 123.637-276.076 276.032 0 152.513 123.561 276.053 276.076 276.053 152.504 0 276.044-123.733 276.044-276.053 0.011-152.395-123.636-276.032-276.044-276.032v0zM862.374 617.563c-16.443 2.348-33.933 17.133-39.007 32.825l-24.381 59.363c-7.671 14.635-5.876 37.448 3.996 50.642l39.681 52.819c9.872 13.226 9.103 34.202-1.88 46.564l-43.441 43.49c-12.393 10.899-33.324 11.742-46.636 1.793l-52.758-39.583c-13.205-9.938-35.995-11.742-50.621-4.067l-59.361 24.424c-15.802 5.092-30.578 22.513-32.853 38.921l-9.37 65.266c-2.329 16.397-17.65 31.181-34.093 32.943 0 0-10.15 1.035-30.813 1.035-20.588 0-30.845-1.035-30.845-1.035-16.432-1.761-31.785-16.546-34.125-32.943l-9.338-65.266c-2.361-16.397-17.148-33.829-32.886-38.921l-59.329-24.424c-14.637-7.633-37.416-5.871-50.642 4.067l-52.833 39.615c-13.227 9.938-34.2 9.138-46.572-1.793l-43.441-43.532c-10.919-12.372-11.817-33.338-1.88-46.564l39.606-52.777c9.979-13.237 11.742-36.049 4.060-50.684l-24.456-59.363c-5.011-15.767-22.501-30.52-38.943-32.825l-65.28-9.277c-16.357-2.391-31.123-17.731-32.875-34.16 0 0-1.058-10.259-1.058-30.893 0-20.677 1.058-30.851 1.058-30.851 1.763-16.514 16.518-31.79 32.875-34.149l65.28-9.266c16.357-2.413 33.933-17.123 38.943-32.879l24.456-59.331c7.682-14.635 5.887-37.501-4.060-50.642l-39.606-52.798c-9.936-13.237-12.329-31.235-5.289-39.828 7.009-8.679 27.127-30.125 27.202-30.21 0-0.085 6.816-6.255 15.032-13.781 8.141-7.504 41.721-18.009 54.948-8.145l52.79 39.689c13.227 9.864 35.973 11.753 50.685 4.003l59.286-24.392c15.78-5.007 30.567-22.481 32.843-38.921l9.349-65.266c2.318-16.343 17.65-31.224 34.168-32.953 0 0 10.171-1.067 30.802-1.067 20.61 0 30.856 1.067 30.856 1.067 16.357 1.729 31.796 16.61 34.061 32.953l9.413 65.266c2.276 16.343 17.073 33.936 32.821 38.921l59.307 24.456c14.626 7.686 37.458 5.893 50.664-4.067l52.769-39.689c13.312-9.864 34.242-9.074 46.657 1.889l43.388 43.415c10.93 12.49 11.752 33.423 1.88 46.66l-39.638 52.798c-9.872 13.141-11.667 36.006-4.028 50.642l24.413 59.331c5.107 15.756 22.543 30.509 38.965 32.879l65.215 9.266c16.432 2.391 31.229 17.635 32.95 34.149 0 0 1.111 10.173 1.111 30.851 0 20.635-1.111 30.893-1.111 30.893-1.72 16.429-16.518 31.779-32.95 34.16l-65.13 9.287z" />
<glyph unicode="&#xe911;" glyph-name="support" data-tags="support" d="M485.405 1024c-268.591 0-485.405-216.814-485.405-485.405 0-267.512 216.814-485.405 485.405-485.405s485.405 217.893 485.405 485.405c0 268.591-216.815 485.405-485.405 485.405v0 0zM472.461 191.261c-36.675 0-65.799 29.124-65.799 65.799s29.124 65.799 65.799 65.799c36.675 0 65.799-30.203 65.799-65.799 0-36.675-29.124-65.799-65.799-65.799v0 0zM577.093 528.887c-29.124-30.203-49.619-52.855-49.619-102.474 0-30.203-24.809-55.013-55.012-55.013s-55.012 24.81-55.012 55.013c0 93.845 45.304 142.385 78.743 177.982 29.124 31.282 43.147 47.462 43.147 83.058 0 36.675-30.203 66.878-66.878 66.878s-66.878-30.203-66.878-66.878c0-30.203-24.809-55.013-55.012-55.013s-55.012 24.81-55.012 55.013c0 97.081 78.743 175.825 175.825 175.825s175.824-78.743 175.824-175.825c2.157-80.901-37.753-124.048-70.114-158.566v0z" />
<glyph unicode="&#xe912;" glyph-name="visa" data-tags="visa" d="M489.292 1024c-269.505 0-489.292-220.132-489.292-491.709s219.778-491.709 489.292-491.709c269.545 0 494.126 220.132 494.126 491.709s-224.57 491.709-494.126 491.709v0zM877.881 378.469h-130.236c7.066 36.027 11.397 74.951 12.258 116.751h145.371c-3.553-40.89-13.005-80.070-27.393-116.751v0zM905.315 569.147h-147.491c-3.082 40.019-9.329 78.032-18.023 113.731h139.36c13.712-35.812 22.713-73.968 26.154-113.731v0zM842.102 756.805h-125.075c-29.707 78.923-72.082 141.506-118.675 180.819 102.024-27.755 188.524-93.348 243.75-180.819v0zM528.482 909.399c45.262-20.987 85.22-76.333 112.899-152.594h-112.899v152.594zM528.482 682.878h134.302c7.957-35.443 13.589-73.63 16.384-113.731h-150.686v113.731zM681.042 495.22c-0.788-42.282-4.895-81.206-11.531-116.751h-141.030v116.751h152.56zM72.358 495.22h143.897c0.86-41.801 5.182-80.735 12.258-116.751h-128.751c-14.398 36.682-23.839 75.862-27.403 116.751v0zM299.754 495.22h152.529v-116.751h-141.531c-6.329 35.556-10.251 74.459-10.998 116.751v0zM301.526 569.147c2.652 40.101 8.018 78.288 15.637 113.731h135.111v-113.731h-150.748zM452.284 911.323v-154.518h-114.589c27.526 78.749 67.975 135.169 114.589 154.518v0zM377.12 937.010c-46.317-39.344-88.415-101.692-117.979-180.205h-123.601c54.847 86.847 140.507 152.113 241.579 180.205v0zM98.471 682.878h137.886c-8.694-35.699-14.941-73.712-18.023-113.731h-146.017c3.441 39.764 12.452 77.92 26.154 113.731v0zM137.599 304.532h110.657c25.673-74.879 64.514-132.579 108.629-170.766-91.026 30.396-168.115 91.362-219.286 170.766v0zM329.124 304.532h123.16v-152.932c-51.775 16.831-95.849 70.507-123.16 152.932v0zM528.482 153.115v151.416h121.819c-27.608-80.069-71.375-133.050-121.819-151.416v0zM618.351 132.947c44.504 38.177 83.694 96.173 109.551 171.585h112.152c-51.611-80.11-129.622-141.455-221.703-171.585v0z" />
<glyph unicode="&#xe913;" glyph-name="arrow" data-tags="arrow" horiz-adv-x="1229" d="M205.21 716.8h819.2l-409.6-409.6-409.6 409.6z" />
<glyph unicode="&#xe914;" glyph-name="check" data-tags="check" d="M403.077 215.040l-239.237 240.742 116.193 116.931 126.433-127.171 340.879 342.938 112.814-113.51-457.083-459.93z" />
</font>
</defs>
</svg>
